<svg width="19" height="19" viewBox="0 0 19 19" fill="none" xmlns="http://www.w3.org/2000/svg">
<path d="M9.55953 5.21611V16.8146M9.55953 5.21611H6.40499C5.94019 5.21611 5.49443 5.02812 5.16577 4.69348C4.8371 4.35884 4.65246 3.90497 4.65246 3.43173C4.65246 2.95848 4.8371 2.50461 5.16577 2.16998C5.49443 1.83533 5.94019 1.64734 6.40499 1.64734C8.85853 1.64734 9.55953 5.21611 9.55953 5.21611ZM9.55953 5.21611H12.7141C13.1789 5.21611 13.6246 5.02812 13.9533 4.69348C14.2819 4.35884 14.4666 3.90497 14.4666 3.43173C14.4666 2.95848 14.2819 2.50461 13.9533 2.16998C13.6246 1.83533 13.1789 1.64734 12.7141 1.64734C10.2605 1.64734 9.55953 5.21611 9.55953 5.21611ZM3.31417 9.67709H15.8049V14.8518C15.8049 15.8512 15.8049 16.3509 15.6104 16.7326C15.4394 17.0683 15.1663 17.3413 14.8306 17.5123C14.4489 17.7068 13.9492 17.7068 12.9499 17.7068H6.16919C5.16984 17.7068 4.67017 17.7068 4.28847 17.5123C3.95271 17.3413 3.67973 17.0683 3.50866 16.7326C3.31417 16.3509 3.31417 15.8512 3.31417 14.8518V9.67709ZM2.9573 9.67709H16.1618C16.6615 9.67709 16.9113 9.67708 17.1021 9.57984C17.2701 9.49427 17.4065 9.35786 17.492 9.18995C17.5893 8.99911 17.5893 8.74929 17.5893 8.24957V6.64363C17.5893 6.14395 17.5893 5.89411 17.492 5.70326C17.4065 5.53539 17.2701 5.3989 17.1021 5.31336C16.9113 5.21612 16.6615 5.21611 16.1618 5.21611H2.9573C2.45762 5.21611 2.20778 5.21612 2.01693 5.31336C1.84906 5.3989 1.71257 5.53539 1.62703 5.70326C1.52979 5.89411 1.52979 6.14395 1.52979 6.64363V8.24957C1.52979 8.74929 1.52979 8.99911 1.62703 9.18995C1.71257 9.35786 1.84906 9.49427 2.01693 9.57984C2.20778 9.67708 2.45762 9.67709 2.9573 9.67709Z" stroke="black" stroke-width="1.85368" stroke-linecap="round" stroke-linejoin="round"/>
</svg>
